<svg width="100" height="100" viewBox="0 0 100 100" fill="none" xmlns="http://www.w3.org/2000/svg">
<g clip-path="url(#clip0_2013_731)">
<rect width="100" height="100" fill="black"/>
<path d="M5.22596 17.5455L22.2608 69.0653H22.9319L39.9348 17.5455H52.9745L29.8993 83H15.2615L-7.78185 17.5455H5.22596ZM93.5675 35.5391C93.2692 32.7479 92.0121 30.5746 89.7962 29.0192C87.6016 27.4638 84.7465 26.6861 81.2309 26.6861C78.7593 26.6861 76.6393 27.0589 74.8708 27.8047C73.1023 28.5504 71.7494 29.5625 70.8119 30.8409C69.8744 32.1193 69.395 33.5788 69.3737 35.2195C69.3737 36.5831 69.6826 37.7656 70.3005 38.767C70.9397 39.7685 71.8026 40.6207 72.8893 41.3239C73.9759 42.0057 75.1798 42.581 76.5008 43.0497C77.8218 43.5185 79.1535 43.9126 80.4958 44.2322L86.6322 45.7663C89.1038 46.3416 91.4795 47.1193 93.7593 48.0994C96.0604 49.0795 98.1165 50.3153 99.9276 51.8068C101.76 53.2983 103.209 55.0987 104.274 57.2081C105.34 59.3175 105.872 61.7891 105.872 64.6229C105.872 68.4581 104.892 71.8352 102.932 74.7543C100.972 77.652 98.1379 79.9212 94.4305 81.5618C90.7444 83.1811 86.2806 83.9908 81.0391 83.9908C75.9468 83.9908 71.5256 83.2024 67.7756 81.6257C64.0469 80.049 61.1279 77.7479 59.0185 74.7223C56.9305 71.6967 55.8012 68.0107 55.6308 63.6641H67.2962C67.4667 65.9439 68.1698 67.8402 69.4056 69.353C70.6414 70.8658 72.2501 71.995 74.2316 72.7408C76.2344 73.4865 78.4717 73.8594 80.9433 73.8594C83.5214 73.8594 85.7799 73.4759 87.7188 72.7088C89.679 71.9205 91.2131 70.8338 92.3211 69.4489C93.4291 68.0426 93.9937 66.402 94.015 64.527C93.9937 62.8224 93.493 61.4162 92.5129 60.3082C91.5327 59.179 90.1585 58.2415 88.39 57.4957C86.6428 56.7287 84.5974 56.0469 82.2536 55.4503L74.8069 53.5327C69.4163 52.1477 65.1549 50.049 62.0228 47.2365C58.912 44.4027 57.3566 40.642 57.3566 35.9545C57.3566 32.098 58.4006 28.7209 60.4887 25.8232C62.5981 22.9254 65.4639 20.6776 69.086 19.0795C72.7082 17.4602 76.8097 16.6506 81.3907 16.6506C86.0356 16.6506 90.1052 17.4602 93.5995 19.0795C97.1151 20.6776 99.8744 22.9041 101.877 25.7592C103.88 28.593 104.913 31.853 104.977 35.5391H93.5675Z" fill="white"/>
</g>
<defs>
<clipPath id="clip0_2013_731">
<rect width="100" height="100" fill="white"/>
</clipPath>
</defs>
</svg>
